<svg width="126" height="89" viewBox="0 0 126 89" fill="none" xmlns="http://www.w3.org/2000/svg">
<path d="M52.8923 41.5469H0.706055V55.9234H52.8923V41.5469Z" fill="white"/>
<path d="M40.0967 24.6967L26.8083 0.600006L13.5199 24.6967L0.706055 7.32262V23.9982L13.958 41.023L26.8083 18.236L39.6404 41.023L52.8923 23.9982V7.32262L40.0967 24.6967Z" fill="white"/>
<path d="M71.4141 3.23672H74.0945V24.7511H71.4141V3.23672ZM74.554 13.7619L78.9959 3.23672H82.0133L77.4642 13.5177L82.871 24.7511H79.7464L74.554 13.7619Z" fill="white"/>
<path d="M84.8623 6.55796C84.6326 6.36259 84.4488 6.09397 84.3109 5.7765C84.1731 5.43462 84.1118 5.06831 84.1118 4.62874C84.1118 4.2136 84.1731 3.84729 84.3109 3.50541C84.4488 3.16352 84.6326 2.91932 84.8623 2.72395C85.0921 2.52859 85.3525 2.43091 85.6282 2.43091C85.9039 2.43091 86.1643 2.52859 86.4093 2.72395C86.6544 2.91932 86.8382 3.18794 86.9761 3.50541C87.1139 3.84729 87.1752 4.2136 87.1752 4.62874C87.1752 5.04389 87.0986 5.43462 86.9761 5.7765C86.8382 6.11839 86.6544 6.38701 86.4093 6.55796C86.1643 6.75332 85.9039 6.851 85.6282 6.851C85.3525 6.851 85.0921 6.7289 84.8623 6.55796ZM84.3569 9.51283H86.9607V24.7512H84.3569V9.51283Z" fill="white"/>
<path d="M97.8663 10.6362C98.3259 11.6375 98.5556 12.9562 98.5556 14.6168V24.7512H95.9517V15.4715C95.9517 14.5679 95.8292 13.9086 95.5688 13.4446C95.3084 12.9806 94.9408 12.7608 94.466 12.7608C94.0525 12.7608 93.6695 12.9317 93.2866 13.2736C92.9037 13.6155 92.5361 14.1772 92.1532 14.9098V24.7512H89.5493V9.51288H91.0963L91.709 12.4678C92.2757 11.3933 92.8577 10.563 93.4704 10.0013C94.0831 9.43962 94.7724 9.14658 95.5688 9.14658C96.641 9.14658 97.4068 9.6594 97.8663 10.6362Z" fill="white"/>
<path d="M108.389 21.9429C109.032 22.3336 109.522 22.8953 109.844 23.6034C110.166 24.3116 110.334 25.1419 110.334 26.0943C110.334 27.2421 110.12 28.2189 109.706 29.0248C109.293 29.8306 108.695 30.4656 107.914 30.8807C107.133 31.2959 106.229 31.5157 105.172 31.5157C104.146 31.5157 103.243 31.3203 102.492 30.9296C101.742 30.5388 101.159 29.9772 100.777 29.269C100.378 28.5608 100.179 27.7549 100.179 26.8269C100.179 26.1432 100.286 25.5815 100.516 25.1175C100.731 24.6535 101.052 24.2628 101.466 23.9697C101.221 23.7011 101.037 23.3837 100.899 23.0174C100.761 22.651 100.685 22.2603 100.685 21.8208C100.685 21.137 100.807 20.5021 101.068 19.9404C101.328 19.3787 101.65 18.8659 102.063 18.3775C101.619 17.8891 101.282 17.303 101.052 16.5704C100.823 15.8378 100.7 15.0319 100.7 14.1283C100.7 13.0538 100.868 12.1259 101.205 11.32C101.542 10.5141 102.017 9.87918 102.661 9.43961C103.289 9.00004 104.039 8.75584 104.912 8.75584C105.892 8.75584 106.719 9.04888 107.409 9.61055L109.553 7.31503L110.503 9.63497L108.726 11.5398C109.017 12.3212 109.155 13.2004 109.155 14.1772C109.155 15.2517 108.986 16.2041 108.649 17.0099C108.312 17.8158 107.822 18.4507 107.194 18.8903C106.566 19.3299 105.816 19.5741 104.943 19.5741C104.437 19.5741 103.978 19.5008 103.549 19.3543C103.396 19.5985 103.289 19.7939 103.212 19.9892C103.135 20.1602 103.089 20.3311 103.089 20.5021C103.089 20.7707 103.166 20.9905 103.319 21.137C103.472 21.2835 103.733 21.3568 104.1 21.3568H106.091C106.965 21.3568 107.746 21.5521 108.389 21.9429ZM107.133 27.8038C107.531 27.4863 107.73 27.0223 107.73 26.3874C107.73 25.899 107.577 25.5327 107.286 25.2885C106.995 25.0442 106.566 24.9221 106.03 24.9221H103.243H103.197C102.997 25.1419 102.844 25.3861 102.737 25.6059C102.63 25.8501 102.584 26.0943 102.584 26.3385C102.584 26.9246 102.783 27.413 103.166 27.7549C103.549 28.0968 104.131 28.2922 104.912 28.2922H105.203C106.091 28.2677 106.735 28.1212 107.133 27.8038ZM103.641 12.4677C103.35 12.8585 103.212 13.4201 103.212 14.226C103.212 14.983 103.35 15.5691 103.641 15.9354C103.932 16.3262 104.33 16.4971 104.866 16.4971C105.402 16.4971 105.816 16.3017 106.091 15.9354C106.383 15.5447 106.52 14.983 106.52 14.226C106.52 13.4446 106.383 12.8585 106.091 12.4677C105.8 12.077 105.387 11.9061 104.851 11.9061C104.33 11.9061 103.932 12.1014 103.641 12.4677Z" fill="white"/>
<path d="M112.647 24.7024C111.958 24.4093 111.361 24.043 110.84 23.579L111.514 20.673C112.096 21.0393 112.678 21.3324 113.26 21.601C113.842 21.8696 114.301 21.9917 114.638 21.9917C115.052 21.9917 115.374 21.8696 115.588 21.601C115.802 21.3568 115.925 21.0149 115.925 20.6242C115.925 20.1846 115.802 19.8183 115.557 19.4764C115.312 19.1345 114.914 18.8171 114.363 18.4752L113.673 18.0844C111.943 17.0832 111.085 15.5447 111.085 13.4446C111.085 12.5654 111.238 11.784 111.56 11.149C111.866 10.4897 112.31 10.0013 112.862 9.6594C113.428 9.31752 114.056 9.14658 114.776 9.14658C115.848 9.14658 116.921 9.48846 117.977 10.1722L117.395 13.2736C116.951 13.005 116.492 12.7608 116.002 12.5654C115.511 12.3701 115.129 12.2724 114.822 12.2724C114.47 12.2724 114.179 12.3701 113.964 12.5899C113.75 12.8096 113.643 13.1027 113.643 13.469C113.643 14.2016 114.041 14.8121 114.853 15.2517L115.466 15.618C116.109 15.9843 116.645 16.3506 117.074 16.7657C117.503 17.1809 117.855 17.6937 118.1 18.3042C118.36 18.9392 118.483 19.6718 118.483 20.5509C118.483 21.4789 118.314 22.2848 117.993 22.9685C117.671 23.6523 117.227 24.1651 116.645 24.5314C116.078 24.8977 115.42 25.0687 114.7 25.0687C114.01 25.1175 113.336 24.971 112.647 24.7024Z" fill="white"/>
<path d="M73.7883 55.4721C72.7468 54.5441 71.9503 53.2498 71.3989 51.5892C70.8475 49.9286 70.5718 47.975 70.5718 45.7772C70.5718 43.5549 70.8475 41.6257 71.3989 39.9407C71.9503 38.2557 72.7468 36.9614 73.7883 36.0334C74.8299 35.1054 76.0399 34.6415 77.449 34.6415C78.123 34.6415 78.8429 34.8124 79.5781 35.1299C80.3133 35.4473 80.9566 35.8625 81.508 36.3997L80.7728 40.014C80.298 39.5744 79.7925 39.2081 79.2564 38.9639C78.7203 38.6952 78.1536 38.5731 77.5716 38.5731C76.7138 38.5731 75.9786 38.8418 75.3659 39.4034C74.7379 39.9651 74.2631 40.771 73.9262 41.8455C73.5892 42.92 73.4207 44.2387 73.4207 45.7528C73.4207 47.218 73.5892 48.4878 73.9108 49.5868C74.2325 50.6613 74.7073 51.516 75.3353 52.1021C75.9633 52.6882 76.7138 52.9812 77.6022 52.9812C78.2302 52.9812 78.8582 52.8103 79.4708 52.4684C80.0835 52.1265 80.6349 51.6625 81.0944 51.1008L81.8909 54.5441C81.2782 55.2523 80.5583 55.814 79.7619 56.2291C78.9654 56.6687 78.1995 56.864 77.4643 56.864C76.0399 56.864 74.8299 56.4001 73.7883 55.4721Z" fill="white"/>
<path d="M90.2078 41.6257L89.733 45.4109C89.4267 45.0934 89.1509 44.898 88.8906 44.7759C88.6302 44.6538 88.3698 44.605 88.0941 44.605C87.7878 44.605 87.4814 44.7271 87.1598 44.9713C86.8381 45.2155 86.5318 45.5818 86.2254 46.0458V56.4977H83.6216V41.2594H85.1686L85.72 44.0433C86.1182 43.1398 86.593 42.3827 87.1291 41.7966C87.6805 41.2105 88.2166 40.8931 88.7374 40.8931C89.2735 40.8931 89.7483 41.1373 90.2078 41.6257Z" fill="white"/>
<path d="M97.6674 41.821C98.2954 42.4316 98.7855 43.3351 99.1378 44.5317C99.4748 45.7283 99.6586 47.1447 99.6586 48.8053C99.6586 49.0983 99.6586 49.3181 99.6432 49.4891H92.9804C93.0264 50.8078 93.2868 51.809 93.7463 52.5416C94.2058 53.2498 94.8184 53.6161 95.5843 53.6161C96.5799 53.6161 97.5295 52.9323 98.4179 51.5892L99.4441 53.8359C98.9846 54.7639 98.4179 55.4965 97.7286 56.0581C97.0394 56.6198 96.2276 56.8884 95.2933 56.8884C94.3743 56.8884 93.5472 56.571 92.8426 55.9605C92.138 55.35 91.5713 54.4464 91.173 53.2742C90.7748 52.0776 90.5757 50.6612 90.5757 49.0006C90.5757 47.4377 90.7748 46.0458 91.1884 44.8248C91.6019 43.6037 92.1686 42.6513 92.9038 41.9431C93.6391 41.2594 94.4662 40.9175 95.4005 40.9175C96.2735 40.8931 97.0241 41.2105 97.6674 41.821ZM97.3304 46.9493C97.2691 45.0445 96.6412 44.0921 95.4464 44.0921C94.895 44.0921 94.4049 44.3363 94.0067 44.8248C93.5931 45.3132 93.3174 46.0214 93.1489 46.9493H97.3304Z" fill="white"/>
<path d="M102.538 56.4489C101.849 56.1558 101.251 55.7895 100.73 55.3255L101.404 52.4195C101.986 52.7858 102.568 53.0789 103.151 53.3475C103.733 53.6161 104.192 53.7382 104.529 53.7382C104.943 53.7382 105.264 53.6161 105.479 53.3475C105.693 53.1033 105.816 52.7614 105.816 52.3707C105.816 51.9311 105.693 51.5648 105.448 51.2229C105.203 50.881 104.805 50.5636 104.253 50.2217L103.564 49.831C101.833 48.8297 100.976 47.2912 100.976 45.1911C100.976 44.3119 101.129 43.5305 101.45 42.8956C101.757 42.2362 102.201 41.7478 102.752 41.4059C103.319 41.064 103.947 40.8931 104.667 40.8931C105.739 40.8931 106.811 41.235 107.868 41.9187L107.286 45.0201C106.842 44.7515 106.382 44.5073 105.892 44.3119C105.402 44.1166 105.019 44.0189 104.713 44.0189C104.361 44.0189 104.07 44.1166 103.855 44.3364C103.641 44.5561 103.533 44.8492 103.533 45.2155C103.533 45.9481 103.932 46.5586 104.743 46.9982L105.356 47.3645C105.999 47.7308 106.536 48.0971 106.964 48.5123C107.393 48.9274 107.746 49.4402 107.991 50.0507C108.251 50.6857 108.374 51.4183 108.374 52.2974C108.374 53.2254 108.205 54.0313 107.883 54.715C107.562 55.3988 107.118 55.9116 106.536 56.2779C105.969 56.6442 105.31 56.8152 104.59 56.8152C103.901 56.864 103.212 56.7175 102.538 56.4489Z" fill="white"/>
<path d="M110.87 55.4476C110.472 54.4952 110.273 53.1765 110.273 51.4671V43.8968H109.094V42.0408L110.702 41.2594L111.131 38.2068H112.862V41.2594H115.527V43.8968H112.862V51.2718C112.862 52.102 112.954 52.6881 113.122 53.03C113.291 53.3719 113.551 53.5429 113.888 53.5429C114.164 53.5429 114.439 53.4696 114.7 53.3231C114.96 53.1765 115.251 52.9568 115.588 52.6637L116.354 54.9837C115.772 55.5453 115.22 56.0093 114.684 56.3512C114.148 56.6931 113.597 56.864 113.045 56.864C111.989 56.864 111.269 56.4 110.87 55.4476Z" fill="white"/>
<path d="M73.9721 87.2431C72.9306 86.3395 72.1035 85.0696 71.4908 83.409C70.8781 81.7485 70.5718 79.8192 70.5718 77.6458C70.5718 75.4968 70.8628 73.5676 71.4448 71.8582C72.0269 70.1488 72.854 68.83 73.9108 67.8532C74.983 66.8764 76.2237 66.4124 77.6481 66.4124C78.3068 66.4124 79.0113 66.5589 79.7619 66.8764C80.5124 67.1939 81.1404 67.609 81.6765 68.1463L80.9259 71.7605C80.5124 71.2965 80.0069 70.9546 79.4402 70.686C78.8735 70.4418 78.3221 70.2953 77.7707 70.2953C76.8823 70.2953 76.1165 70.5883 75.4425 71.1988C74.7839 71.8093 74.2784 72.6396 73.9262 73.7386C73.5739 74.8375 73.3901 76.1073 73.3901 77.5726C73.3901 79.1355 73.5739 80.4542 73.9415 81.5775C74.3091 82.7008 74.7992 83.5311 75.4272 84.0928C76.0552 84.6545 76.7445 84.9475 77.5103 84.9475C77.9698 84.9475 78.368 84.8743 78.7356 84.7277C79.0879 84.5812 79.4555 84.3614 79.8231 84.0928V79.7704H77.2499V76.376H82.381V86.4616C81.7684 86.9744 81.2476 87.3651 80.8034 87.6582C80.3592 87.9512 79.8691 88.171 79.3177 88.342C78.7663 88.5129 78.123 88.5862 77.3878 88.5862C76.1471 88.5862 75.0137 88.1466 73.9721 87.2431Z" fill="white"/>
<path d="M84.6631 66.1682H87.267V88.2442H84.6631V66.1682Z" fill="white"/>
<path d="M91.6171 87.5849C90.8666 86.9011 90.2846 85.9487 89.8557 84.7277C89.4268 83.5067 89.2124 82.1392 89.2124 80.6251C89.2124 79.111 89.4268 77.7435 89.8557 76.5225C90.2846 75.3014 90.8819 74.3491 91.6171 73.6653C92.3677 72.9815 93.1948 72.6396 94.1138 72.6396C95.0328 72.6396 95.8599 72.9815 96.6104 73.6653C97.3609 74.3491 97.9583 75.3014 98.3872 76.5225C98.816 77.7435 99.0458 79.111 99.0458 80.6251C99.0458 82.1392 98.8313 83.5067 98.3872 84.7277C97.9583 85.9487 97.3609 86.8767 96.6104 87.5849C95.8599 88.2687 95.0328 88.6106 94.1138 88.6106C93.2101 88.6106 92.3677 88.2687 91.6171 87.5849ZM95.3698 84.7033C95.722 84.3126 95.9824 83.7753 96.1815 83.0916C96.3807 82.4078 96.4572 81.5775 96.4572 80.6251C96.4572 79.6727 96.3653 78.8424 96.1815 78.1342C95.9977 77.426 95.722 76.8888 95.3698 76.5225C95.0175 76.1562 94.6039 75.9608 94.1291 75.9608C93.6543 75.9608 93.2254 76.1562 92.8884 76.5225C92.5361 76.8888 92.2758 77.426 92.0766 78.1342C91.8928 78.8424 91.8009 79.6483 91.8009 80.6251C91.8009 81.5531 91.8928 82.3834 92.092 83.0916C92.2758 83.7998 92.5515 84.337 92.9037 84.7033C93.256 85.094 93.6696 85.265 94.1444 85.265C94.6192 85.265 95.0175 85.094 95.3698 84.7033Z" fill="white"/>
<path d="M108.542 73.6408C109.094 74.2758 109.538 75.1549 109.859 76.3027C110.181 77.4504 110.349 78.7447 110.349 80.2343C110.349 81.9194 110.15 83.3846 109.752 84.6544C109.354 85.9243 108.787 86.9011 108.037 87.5849C107.286 88.2687 106.413 88.635 105.417 88.635C103.84 88.635 102.354 87.8047 100.976 86.1441V66.1926H103.579V74.9351C104.039 74.2758 104.529 73.7385 105.08 73.3234C105.632 72.9082 106.168 72.7129 106.689 72.7129C107.363 72.7129 107.991 73.0303 108.542 73.6408ZM107.133 84.1172C107.562 83.3357 107.776 82.1636 107.776 80.6007C107.776 79.1598 107.592 78.0365 107.24 77.2795C106.873 76.498 106.382 76.1317 105.754 76.1317C105.142 76.1317 104.407 76.7178 103.564 77.89V84.0439C103.809 84.4102 104.085 84.7033 104.422 84.9475C104.759 85.1673 105.065 85.2894 105.372 85.2894C106.122 85.265 106.704 84.8986 107.133 84.1172Z" fill="white"/>
<path d="M120.152 83.409V88.2443H118.621L118.146 85.8511C117.702 86.4372 117.288 86.95 116.905 87.3407C116.538 87.7314 116.124 88.0489 115.68 88.2687C115.236 88.4885 114.761 88.6106 114.255 88.6106C113.735 88.6106 113.26 88.4641 112.846 88.1466C112.433 87.8291 112.111 87.3896 111.866 86.8035C111.621 86.2174 111.514 85.558 111.514 84.8254C111.514 83.1648 112.019 81.7973 113.03 80.6739C114.041 79.5506 115.557 78.7936 117.564 78.4028C117.518 77.6458 117.38 77.0841 117.135 76.7178C116.89 76.3515 116.538 76.1806 116.032 76.1806C115.465 76.1806 114.929 76.3271 114.424 76.6202C113.918 76.9132 113.367 77.3528 112.785 77.89L112.126 74.9107C112.708 74.3002 113.413 73.763 114.225 73.3234C115.037 72.8838 115.848 72.664 116.66 72.664C117.901 72.664 118.789 73.2013 119.325 74.3002C119.861 75.3747 120.137 76.9132 120.137 78.8424L120.152 83.409ZM114.347 84.9475C114.5 85.2161 114.761 85.3382 115.113 85.3382C115.542 85.3382 115.94 85.1673 116.338 84.8498C116.721 84.5324 117.135 84.0928 117.564 83.5067V80.8693C116.66 81.0402 115.956 81.2844 115.45 81.5531C114.945 81.8461 114.592 82.1636 114.393 82.5055C114.194 82.8474 114.102 83.2869 114.102 83.7509C114.118 84.2882 114.194 84.6789 114.347 84.9475Z" fill="white"/>
<path d="M122.664 66.1682H125.268V88.2442H122.664V66.1682Z" fill="white"/>
</svg>
